REM GENRE Electro
REM DATE 2001
REM DISCID D00DA810
REM COMMENT "ExactAudioCopy v0.95b4"
PERFORMER "Test Cue Sheet"
TITLE "Test Flac File"
FILE "testfile4.flac" FLAC
  TRACK 01 AUDIO
    TITLE "Track nr 1"
    PERFORMER "FlacLibSharp"
    INDEX 01 00:00:00
  TRACK 02 AUDIO
    TITLE "Tack nr 2"
    PERFORMER "FlacLibSharp"
    INDEX 00 00:15:00
    INDEX 01 00:20:00
  TRACK 03 AUDIO
    TITLE "Track nr 3"
    PERFORMER "FlacLibSharp"
    INDEX 00 00:25:00
    INDEX 01 00:30:00